<svg width="68" height="60" viewBox="0 0 68 60" fill="none" xmlns="http://www.w3.org/2000/svg">
<circle cx="30" cy="30" r="30" fill="#F2B100" fill-opacity="0.15"/>
<g clip-path="url(#clip0_1009_1760)">
<path d="M40 4C34.4621 4 29.0486 5.64217 24.444 8.71885C19.8395 11.7955 16.2506 16.1685 14.1314 21.2849C12.0121 26.4012 11.4576 32.0311 12.538 37.4625C13.6184 42.894 16.2852 47.8831 20.201 51.799C24.1169 55.7149 29.106 58.3816 34.5375 59.462C39.969 60.5424 45.5988 59.9879 50.7152 57.8686C55.8315 55.7494 60.2045 52.1605 63.2812 47.556C66.3578 42.9514 68 37.5379 68 32C68 24.5739 65.05 17.452 59.799 12.201C54.548 6.94999 47.4261 4 40 4ZM40 8.66667C40.4615 8.66667 40.9126 8.80351 41.2963 9.0599C41.6801 9.31629 41.9791 9.68071 42.1557 10.1071C42.3323 10.5334 42.3785 11.0026 42.2885 11.4552C42.1985 11.9078 41.9763 12.3236 41.6499 12.6499C41.3236 12.9762 40.9078 13.1985 40.4552 13.2885C40.0026 13.3785 39.5334 13.3323 39.1071 13.1557C38.6807 12.9791 38.3163 12.68 38.0599 12.2963C37.8035 11.9126 37.6667 11.4615 37.6667 11C37.6667 10.3812 37.9125 9.78767 38.3501 9.35008C38.7877 8.9125 39.3812 8.66667 40 8.66667ZM19 34.3333C18.5385 34.3333 18.0874 34.1965 17.7037 33.9401C17.32 33.6837 17.0209 33.3193 16.8443 32.8929C16.6677 32.4666 16.6215 31.9974 16.7115 31.5448C16.8015 31.0922 17.0238 30.6764 17.3501 30.3501C17.6764 30.0238 18.0922 29.8015 18.5448 29.7115C18.9974 29.6215 19.4666 29.6677 19.8929 29.8443C20.3193 30.0209 20.6837 30.32 20.9401 30.7037C21.1965 31.0874 21.3333 31.5385 21.3333 32C21.3333 32.6188 21.0875 33.2123 20.6499 33.6499C20.2123 34.0875 19.6189 34.3333 19 34.3333ZM40 55.3333C39.5385 55.3333 39.0874 55.1965 38.7037 54.9401C38.32 54.6837 38.0209 54.3193 37.8443 53.8929C37.6677 53.4666 37.6215 52.9974 37.7115 52.5448C37.8015 52.0922 38.0238 51.6764 38.3501 51.3501C38.6764 51.0238 39.0922 50.8015 39.5448 50.7115C39.9974 50.6215 40.4666 50.6677 40.8929 50.8443C41.3193 51.0209 41.6837 51.32 41.9401 51.7037C42.1965 52.0874 42.3333 52.5385 42.3333 53C42.3333 53.6188 42.0875 54.2123 41.6499 54.6499C41.2123 55.0875 40.6189 55.3333 40 55.3333ZM51.3167 43.3167C51.2082 43.426 51.0792 43.5128 50.937 43.572C50.7949 43.6313 50.6424 43.6618 50.4884 43.6618C50.3343 43.6618 50.1818 43.6313 50.0397 43.572C49.8975 43.5128 49.7685 43.426 49.66 43.3167L40.56 34.3333C40.374 34.3558 40.186 34.3558 40 34.3333C39.3812 34.3612 38.7766 34.1421 38.3193 33.7242C37.8621 33.3063 37.5895 32.7238 37.5617 32.105C37.5338 31.4862 37.753 30.8816 38.1709 30.4243C38.5887 29.9671 39.1712 29.6945 39.79 29.6667L47 14.01C47.13 13.7284 47.3665 13.51 47.6575 13.4028C47.9484 13.2956 48.2701 13.3084 48.5517 13.4383C48.8333 13.5683 49.0517 13.8048 49.1589 14.0958C49.2661 14.3868 49.2533 14.7084 49.1233 14.99L41.7967 30.6933C42.1063 31.063 42.2938 31.5195 42.3333 32C42.3558 32.186 42.3558 32.374 42.3333 32.56L51.4333 41.66C51.5354 41.776 51.6134 41.9111 51.6629 42.0575C51.7123 42.2039 51.7322 42.3586 51.7213 42.5127C51.7105 42.6668 51.6691 42.8173 51.5997 42.9553C51.5302 43.0933 51.434 43.2161 51.3167 43.3167ZM61 34.3333C60.5385 34.3333 60.0874 34.1965 59.7037 33.9401C59.32 33.6837 59.0209 33.3193 58.8443 32.8929C58.6677 32.4666 58.6215 31.9974 58.7115 31.5448C58.8015 31.0922 59.0238 30.6764 59.3501 30.3501C59.6764 30.0238 60.0922 29.8015 60.5448 29.7115C60.9974 29.6215 61.4666 29.6677 61.8929 29.8443C62.3193 30.0209 62.6837 30.32 62.9401 30.7037C63.1965 31.0874 63.3334 31.5385 63.3334 32C63.3334 32.6188 63.0875 33.2123 62.6499 33.6499C62.2123 34.0875 61.6189 34.3333 61 34.3333Z" fill="#F2B100"/>
</g>
<defs>
<clipPath id="clip0_1009_1760">
<rect width="56" height="56" fill="white" transform="translate(12 4)"/>
</clipPath>
</defs>
</svg>
