<svg width="63" height="62" viewBox="0 0 63 62" fill="none" xmlns="http://www.w3.org/2000/svg">
<circle cx="30" cy="30" r="30" fill="#F2B100" fill-opacity="0.15"/>
<g clip-path="url(#clip0_1009_1770)">
<path d="M51.9394 31.2058V28.4341V24.9359C51.9394 23.4391 51.3276 22.0788 50.3419 21.0931C49.3562 20.1074 47.996 19.4956 46.4991 19.4956H14.1898C12.693 19.4956 11.3327 20.1074 10.347 21.0931C9.36131 22.0788 8.74951 23.4391 8.74951 24.9359V45.9542C8.74951 47.451 9.3613 48.8113 10.347 49.797C11.3327 50.7827 12.693 51.3945 14.1898 51.3945H46.4991C47.996 51.3945 49.3562 50.7827 50.3419 49.797C51.3276 48.8113 51.9394 47.451 51.9394 45.9542V41.6627V39.6842H43.8281C42.7401 39.6842 41.8499 38.794 41.8499 37.706V33.184C41.8499 32.096 42.7401 31.2058 43.8281 31.2058L51.9394 31.2058Z" fill="#F2B100"/>
<path fill-rule="evenodd" clip-rule="evenodd" d="M8.74964 22.0385V21.8307C8.74964 20.273 9.34055 18.8846 10.4358 17.7893C11.5598 16.6653 13.0936 15.9865 14.6429 15.7016L41.934 10.6835C42.2185 10.6312 42.5074 10.6021 42.7968 10.6021C44.1944 10.6021 45.4661 11.2205 46.4415 12.2019C47.3691 13.1352 48.0061 14.3796 48.2439 15.6726C48.3129 16.0483 48.3512 16.4304 48.3512 16.8126V19.0549C47.7584 18.8673 47.1348 18.7692 46.4992 18.7692H45.4452V16.8126C45.4452 16.6062 45.4275 16.3995 45.3902 16.1965C45.2576 15.4754 44.9014 14.7689 44.3835 14.2478C43.9608 13.8224 43.409 13.5081 42.7968 13.5081C42.6834 13.5081 42.5695 13.5166 42.4579 13.5371L15.1668 18.5553C13.1827 18.9201 11.3957 19.0172 9.83342 20.5795C9.39804 21.0149 9.03424 21.5069 8.74964 22.0385ZM43.8282 31.9324H53.9956C54.6841 31.9324 55.2474 32.4957 55.2474 33.1841V37.7062C55.2474 38.3946 54.6841 38.9579 53.9956 38.9579H43.8282C43.1398 38.9579 42.5765 38.3946 42.5765 37.7062V33.1841C42.5765 32.4957 43.1398 31.9324 43.8282 31.9324ZM51.2015 34.3097C51.8286 34.3097 52.337 34.8181 52.337 35.4452C52.337 36.0723 51.8286 36.5806 51.2015 36.5806C50.5744 36.5806 50.066 36.0723 50.066 35.4452C50.066 34.8181 50.5744 34.3097 51.2015 34.3097Z" fill="#F2B100"/>
</g>
<defs>
<clipPath id="clip0_1009_1770">
<rect width="62" height="62" fill="white" transform="translate(1)"/>
</clipPath>
</defs>
</svg>
