<svg width="62" height="60" viewBox="0 0 62 60" fill="none" xmlns="http://www.w3.org/2000/svg">
<circle cx="30" cy="30" r="30" fill="#F2B100" fill-opacity="0.15"/>
<path d="M22.9976 14.2766C22.5825 14.2766 22.2136 14.4638 21.983 14.7915C20.6917 16.4766 20 18.5362 20 20.6894C20 21.4383 20.5995 22 21.2913 22C22.0291 22 22.5825 21.3915 22.5825 20.6894C22.5825 19.1447 23.0898 17.6936 24.0121 16.4766C24.335 16.0085 24.3811 15.4 24.0583 14.9319C23.8738 14.4638 23.4587 14.2766 22.9976 14.2766ZM29.5 11C29.1311 11 28.716 11 28.3932 11.0468C27.932 11.0936 27.5631 11.3745 27.3325 11.7957C27.1481 12.217 27.1942 12.6851 27.4709 13.1064C27.7476 13.5277 28.2087 13.7149 28.716 13.6681C28.9927 13.6213 29.2694 13.6213 29.5461 13.6213C33.3277 13.6213 36.4175 16.7574 36.4175 20.5957C36.4175 21.3447 37.017 21.9064 37.7087 21.9064C38.4466 21.9064 39 21.2979 39 20.5957C39 15.3064 34.7573 11 29.5 11ZM29.5 17.9745C29.4078 17.9745 29.3155 17.9745 29.2233 18.0213L25.3034 11.9362C25.0728 11.6085 24.6578 11.5149 24.2888 11.7489C23.966 11.983 23.8738 12.4043 24.1044 12.7787L28.0243 18.8638C27.8398 19.1447 27.7476 19.4723 27.7476 19.8C27.7476 20.783 28.5316 21.5787 29.5 21.5787C30.4684 21.5787 31.2524 20.783 31.2524 19.8C31.2524 18.7702 30.4684 17.9745 29.5 17.9745Z" fill="#F2B100"/>
<path d="M59.8421 54.7796H44.0018C46.1139 53.3728 47.4454 51.013 47.4454 48.3355V31.6807H47.5831C49.236 31.6807 50.6134 33.0421 50.6134 34.6759V43.2982C50.6134 45.8849 52.7254 47.9724 55.3425 47.9724C57.9596 47.9724 60.0716 45.8849 60.0716 43.2982V31.3631C61.1736 31 62 29.9562 62 28.731V24.6013C62 23.3306 61.1276 22.2869 59.9798 21.9692C59.6125 19.3371 58.2351 16.9773 56.0312 15.3436C55.5721 15.0259 54.9293 15.1167 54.562 15.5705C54.2406 16.0243 54.3324 16.6596 54.7915 17.0227C56.4904 18.2934 57.5923 20.1086 57.9137 22.1054C56.9036 22.5138 56.2149 23.5122 56.2149 24.6467V28.7763C56.2149 29.9562 56.9495 30.9546 58.0514 31.3631V43.2982C58.0514 44.7504 56.8577 45.8849 55.4343 45.8849C53.9651 45.8849 52.8173 44.705 52.8173 43.2982V34.6759C52.6795 31.9076 50.4298 29.6386 47.5831 29.6386H47.4454V10.8509C47.4454 6.53971 43.91 3 39.5023 3H19.989C15.6272 3 12.0459 6.49433 12.0459 10.8509V48.3355C12.0459 51.013 13.4233 53.3728 15.4894 54.7796H14.1579C13.5611 54.7796 13.056 55.0065 12.6428 55.4149C12.2755 55.778 12 56.3225 12 56.9125C12 58.047 12.9642 59 14.112 59H59.7502C60.3471 59 60.8522 58.7731 61.2654 58.3647C61.6327 58.0016 61.9082 57.4571 61.9082 56.9125C61.9541 55.7326 60.9899 54.7796 59.8421 54.7796ZM16.2241 10.8509C16.2241 8.76337 17.9229 7.12966 19.989 7.12966H39.5482C41.6143 7.12966 43.3131 8.80875 43.3131 10.8509V25.9627H16.2241V10.8509ZM30.3655 48.6078C27.427 48.8347 24.9017 46.9287 24.3967 44.0697C24.1212 42.6175 24.3967 41.3015 25.2231 40.1216C26.1873 38.7601 27.2433 37.4441 28.2075 36.0827C28.7585 35.3112 29.3554 34.5851 29.4931 33.6321C29.4931 33.5413 29.6309 33.4506 29.6768 33.4506C29.7227 33.4506 29.8604 33.5413 29.9063 33.5867C30.3196 35.2658 31.6051 36.4457 32.5693 37.7618C33.3039 38.7148 33.9927 39.7131 34.6354 40.7569C35.0946 41.483 35.2782 42.2998 35.2323 43.0259C35.3241 46.0211 33.0744 48.4263 30.3655 48.6078Z" fill="#F2B100"/>
</svg>
