<svg width="60" height="60" viewBox="0 0 60 60" fill="none" xmlns="http://www.w3.org/2000/svg">
<circle cx="30" cy="30" r="30" fill="#F2B100" fill-opacity="0.15"/>
<path d="M33.9999 28.4167C36.7405 28.4167 39.3688 27.328 41.3067 25.3901C43.2446 23.4522 44.3333 20.8239 44.3333 18.0833C44.3333 15.3428 43.2446 12.7144 41.3067 10.7766C39.3688 8.83869 36.7405 7.75 33.9999 7.75C31.2593 7.75 28.631 8.83869 26.6931 10.7766C24.7553 12.7144 23.6666 15.3428 23.6666 18.0833C23.6666 20.8239 24.7553 23.4522 26.6931 25.3901C28.631 27.328 31.2593 28.4167 33.9999 28.4167ZM33.9999 33.5833C29.9889 33.5803 26.0324 34.5127 22.4449 36.3065C18.8573 38.1003 15.7375 40.706 13.3333 43.9167C15.7375 47.1273 18.8573 49.733 22.4449 51.5268C26.0324 53.3206 29.9889 54.253 33.9999 54.25C38.0109 54.253 41.9674 53.3206 45.555 51.5268C49.1426 49.733 52.2624 47.1273 54.6666 43.9167C52.2624 40.706 49.1426 38.1003 45.555 36.3065C41.9674 34.5127 38.0109 33.5803 33.9999 33.5833Z" fill="#F2B100"/>
</svg>
