<svg width="20" height="20" viewBox="0 0 20 20" fill="none" xmlns="http://www.w3.org/2000/svg">
<g clip-path="url(#clip0_1008_1748)">
<path fill-rule="evenodd" clip-rule="evenodd" d="M12.018 18.1729C12.018 17.4816 11.4576 16.9212 10.7663 16.9212C10.2788 16.9212 9.72121 16.9212 9.23367 16.9212C8.90172 16.9212 8.58336 17.0531 8.34863 17.2878C8.11391 17.5225 7.98203 17.8409 7.98203 18.1729C7.98203 18.8641 8.54242 19.4245 9.23367 19.4245C9.72121 19.4245 10.2788 19.4245 10.7663 19.4245C11.4576 19.4245 12.018 18.8641 12.018 18.1729ZM2.63129 14.9454C2.84035 14.9614 3.09328 14.9705 3.34734 14.9557C3.4827 15.6421 3.81895 16.2787 4.32086 16.7807C4.98719 17.447 5.8909 17.8213 6.8332 17.8213H7.31078C7.28973 17.9365 7.27891 18.0541 7.27891 18.1729C7.27891 18.2929 7.28973 18.4104 7.31047 18.5244H6.8332C5.70441 18.5244 4.62184 18.076 3.82367 17.2779C3.18691 16.6411 2.77273 15.8233 2.63129 14.9454ZM2.27363 14.1972C1.71852 14.1036 1.20195 13.8397 0.798711 13.4364C0.287305 12.925 0 12.2314 0 11.5082C0 10.9768 0 10.3777 0 9.84633C0 9.12309 0.287305 8.42945 0.798711 7.91805C1.31012 7.40664 2.00375 7.1193 2.72699 7.1193H2.90852C3.19867 3.45695 6.26281 0.575195 10 0.575195C13.7372 0.575195 16.8013 3.45695 17.0915 7.1193H17.273C17.9962 7.1193 18.6899 7.40664 19.2013 7.91805C19.7127 8.42945 20 9.12309 20 9.84633V11.5082C20 12.2314 19.7127 12.925 19.2013 13.4364C18.6899 13.9479 17.9962 14.2352 17.273 14.2352H16.4683C16.1345 14.2352 15.864 13.9646 15.864 13.6309V7.68918C15.864 4.45059 13.2386 1.8252 10 1.8252C6.76141 1.8252 4.13602 4.45059 4.13602 7.68918C4.13602 7.68918 4.13602 12.0102 4.13602 13.6309C4.13602 13.8665 4.00113 14.0707 3.80434 14.1704C3.26262 14.3583 2.4225 14.2223 2.27363 14.1972Z" fill="black"/>
</g>
<defs>
<clipPath id="clip0_1008_1748">
<rect width="20" height="20" fill="white"/>
</clipPath>
</defs>
</svg>
