<svg width="24" height="24" viewBox="0 0 24 24" fill="none" xmlns="http://www.w3.org/2000/svg">
<g clip-path="url(#clip0_1008_1694)">
<path d="M0.51209 11.8563C0.511527 13.8728 1.04253 15.8417 2.05221 17.5771L0.415527 23.5066L6.53103 21.9156C8.22249 22.8292 10.1177 23.308 12.0435 23.3081H12.0486C18.4062 23.3081 23.5815 18.1748 23.5842 11.8653C23.5855 8.80792 22.3866 5.93295 20.2084 3.76997C18.0306 1.60718 15.1342 0.415458 12.0481 0.414062C5.68972 0.414062 0.514809 5.54709 0.512184 11.8563" fill="url(#paint0_linear_1008_1694)"/>
<path d="M0.100313 11.8527C0.0996563 13.9417 0.649687 15.981 1.69537 17.7786L0 23.9207L6.33478 22.2726C8.08022 23.2168 10.0454 23.7147 12.0451 23.7154H12.0502C18.636 23.7154 23.9972 18.3975 24 11.8621C24.0011 8.69488 22.7591 5.71656 20.5031 3.47609C18.2468 1.23591 15.2468 0.00130233 12.0502 0C5.46337 0 0.102938 5.31721 0.100313 11.8527ZM3.87281 17.469L3.63628 17.0965C2.64197 15.5277 2.11716 13.7149 2.11791 11.8534C2.12006 6.4213 6.57544 2.00186 12.054 2.00186C14.7071 2.00298 17.2005 3.02921 19.0759 4.89116C20.9512 6.7533 21.9831 9.22865 21.9824 11.8614C21.98 17.2935 17.5245 21.7135 12.0502 21.7135H12.0463C10.2638 21.7126 8.51569 21.2376 6.99112 20.34L6.62831 20.1265L2.86913 21.1045L3.87281 17.4689V17.469Z" fill="url(#paint1_linear_1008_1694)"/>
<path d="M9.06358 6.89771C8.8399 6.4044 8.60449 6.39445 8.39177 6.3858C8.21758 6.37836 8.01846 6.37892 7.81952 6.37892C7.6204 6.37892 7.29687 6.45324 7.0234 6.74952C6.74965 7.04608 5.97827 7.76273 5.97827 9.22031C5.97827 10.678 7.04824 12.0866 7.1974 12.2845C7.34674 12.482 9.26299 15.5689 12.2979 16.7564C14.8201 17.7433 15.3334 17.547 15.8808 17.4975C16.4283 17.4482 17.6474 16.7811 17.8961 16.0892C18.1451 15.3975 18.1451 14.8046 18.0704 14.6807C17.9958 14.5572 17.7967 14.4831 17.4981 14.335C17.1994 14.1868 15.7315 13.4701 15.4578 13.3712C15.1841 13.2724 14.985 13.2231 14.7859 13.5198C14.5868 13.8159 14.015 14.4831 13.8407 14.6807C13.6666 14.8787 13.4923 14.9034 13.1938 14.7552C12.8951 14.6065 11.9335 14.2941 10.7926 13.2849C9.90499 12.4996 9.30574 11.5298 9.13155 11.2331C8.95737 10.937 9.1129 10.7764 9.26262 10.6288C9.39677 10.496 9.5613 10.2828 9.71074 10.1099C9.85962 9.93687 9.9093 9.81343 10.0089 9.61585C10.1085 9.41808 10.0586 9.24506 9.98412 9.09687C9.9093 8.94868 9.32908 7.48347 9.06358 6.89771Z" fill="white"/>
</g>
<defs>
<linearGradient id="paint0_linear_1008_1694" x1="1158.85" y1="2309.67" x2="1158.85" y2="0.414062" gradientUnits="userSpaceOnUse">
<stop stop-color="#1FAF38"/>
<stop offset="1" stop-color="#60D669"/>
</linearGradient>
<linearGradient id="paint1_linear_1008_1694" x1="1200" y1="2392.07" x2="1200" y2="0" gradientUnits="userSpaceOnUse">
<stop stop-color="#F9F9F9"/>
<stop offset="1" stop-color="white"/>
</linearGradient>
<clipPath id="clip0_1008_1694">
<rect width="24" height="24" fill="white"/>
</clipPath>
</defs>
</svg>
